HIERARCHY
ROOT Hips
{
	OFFSET 0.000000 0.000000 0.000000 
	CHANNELS 6 Xposition Yposition Zposition Yrotation Zrotation Xrotation 
	JOINT Lumbar
	{
		OFFSET 0.000000 0.000000 0.000000 
		CHANNELS 3 Zrotation Xrotation Yrotation
		JOINT Neck
		{
			OFFSET 0.000000 0.445665 0.000000 
			CHANNELS 3 Zrotation Xrotation Yrotation
			End Site
			{
				OFFSET 0.000000 0.227535 0.000000 
			}
		}
		JOINT RightShoulder
		{
			OFFSET 0.019635 0.377685 0.194865 
			CHANNELS 3 Zrotation Xrotation Yrotation
			JOINT RightElbow
			{
				OFFSET 0.000000 -0.243375 0.000000 
				CHANNELS 2 Zrotation Yrotation
				JOINT RightWrist
				{
					OFFSET 0.000000 -0.264825 0.000000 
					CHANNELS 2 Zrotation Xrotation
					End Site
					{
						OFFSET 0.006600 -0.176220 0.000990 
					}
				}
			}
		}
		JOINT LeftShoulder
		{
			OFFSET 0.019635 0.377685 -0.194865 
			CHANNELS 3 Zrotation Xrotation Yrotation
			JOINT LeftElbow
			{
				OFFSET 0.000000 -0.243375 0.000000 
				CHANNELS 2 Zrotation Yrotation
				JOINT LeftWrist
				{
					OFFSET 0.000000 -0.264825 0.000000 
					CHANNELS 2 Zrotation Xrotation
					End Site
					{
						OFFSET 0.006600 -0.176220 -0.000990 
					}
				}
			}
		}
	}
	JOINT RightHip
	{
		OFFSET 0.052140 -0.069960 0.075570 
		CHANNELS 3 Zrotation Xrotation Yrotation
		JOINT RightKnee
		{
			OFFSET 0.000000 -0.402270 0.000000 
			CHANNELS 1 Zrotation
			JOINT RightAnkle
			{
				OFFSET 0.000000 -0.404085 0.000000 
				CHANNELS 3 Zrotation Xrotation Yrotation
				End Site
				{
					OFFSET 0.204105 -0.089430 0.008415 
				}
			}
		}
	}
	JOINT LeftHip
	{
		OFFSET 0.052140 -0.069960 -0.075570 
		CHANNELS 3 Zrotation Xrotation Yrotation
		JOINT LeftKnee
		{
			OFFSET 0.000000 -0.402270 0.000000 
			CHANNELS 1 Zrotation
			JOINT LeftAnkle
			{
				OFFSET 0.000000 -0.404085 0.000000 
				CHANNELS 3 Zrotation Xrotation Yrotation
				End Site
				{
					OFFSET 0.204105 -0.089430 -0.008415 
				}
			}
		}
	}
}
MOTION
Frames: 14
Frame Time: 0.02
0.00228 0.00104 0.00072 21.62548 -22.98518 -6.87124 45.34659 3.7778 -3.58658 -7.88978 -9.26459 -0.32899 -22.33039 -12.20815 1.04489 38.87796 71.74214 4.04361 -4.2705 -28.16083 11.49549 -2.3632 41.80913 -132.85749 21.58607 -6.90416 34.88693 -0.95248 -9.59317 -20.37513 -7.95643 -3.28684 -3.89165 37.21005 8.42445 9.42588 -26.94558 -8.65627 3.5808 4.06704
0.00202 0.001 0.00127 21.58427 -22.99204 -6.87883 45.29656 3.54659 -3.66309 -8.06765 -8.15473 -0.33424 -22.22502 -12.06689 1.02956 38.59087 75.23444 4.66426 -3.42866 -27.83036 11.76722 -2.37636 41.90429 -129.08874 20.80837 -6.22909 34.92084 -0.97474 -9.9736 -20.36053 -7.93353 -3.2509 -3.87353 37.27424 8.49968 9.57197 -26.99684 -8.65089 3.56256 4.05949
0.00177 0.00097 0.00183 21.54322 -22.99891 -6.88635 45.24664 3.31588 -3.7395 -8.24497 -7.04755 -0.33948 -22.11986 -11.92611 1.01457 38.30438 78.71578 5.28282 -2.58952 -27.50045 12.03806 -2.38908 41.99887 -125.33157 20.03313 -5.55608 34.95471 -0.99705 -10.35278 -20.34602 -7.9107 -3.21507 -3.85546 37.33822 8.57465 9.7179 -27.04789 -8.64548 3.54434 4.05194
0.00151 0.00093 0.00238 21.50214 -23.00576 -6.89391 45.19676 3.08534 -3.81579 -8.42229 -5.94097 -0.34471 -22.01479 -11.78529 0.99933 38.01812 82.19746 5.90155 -1.75025 -27.17092 12.30896 -2.40212 42.09369 -121.57442 19.25784 -4.88309 34.98853 -1.01925 -10.73202 -20.33147 -7.88788 -3.17925 -3.83739 37.40221 8.64966 9.86362 -27.09898 -8.64011 3.52615 4.04441
0.00125 0.00089 0.00294 21.4609 -23.0126 -6.90158 45.14679 2.8544 -3.89215 -8.60016 -4.83205 -0.34996 -21.90958 -11.644 0.98365 37.73139 85.6897 6.52234 -0.90835 -26.84101 12.58074 -2.41579 42.18921 -117.80569 18.48006 -4.20802 35.02237 -1.04137 -11.11253 -20.31682 -7.86499 -3.14333 -3.81928 37.46642 8.72489 10.0093 -27.15031 -8.63479 3.50795 4.03689
0.00099 0.00086 0.00349 21.42025 -23.0195 -6.90876 45.09697 2.62421 -3.96864 -8.77631 -3.7286 -0.35519 -21.80452 -11.50431 0.97011 37.44544 89.14771 7.13616 -0.07512 -26.51112 12.84957 -2.42655 42.28182 -114.07307 17.71021 -3.5394 35.05628 -1.06409 -11.48892 -20.30257 -7.84227 -3.1077 -3.80131 37.52994 8.7993 10.15571 -27.20076 -8.62918 3.4897 4.02929
0.00073 0.00082 0.00405 21.37842 -23.02629 -6.91691 45.04693 2.39272 -4.04476 -8.95573 -2.61529 -0.36043 -21.69924 -11.36149 0.95226 37.15817 92.6718 7.76348 0.77487 -26.18154 13.1241 -2.44304 42.38014 -110.2721 16.92528 -2.85858 35.09001 -1.08555 -11.87315 -20.28754 -7.81925 -3.07151 -3.78306 37.59474 8.87536 10.3007 -27.25292 -8.62417 3.47156 4.02185
0.00047 0.00079 0.0046 21.33777 -23.03317 -6.9242 44.99706 2.1625 -4.12129 -9.13214 -1.51119 -0.36567 -21.59421 -11.22169 0.93841 36.87226 96.13307 8.3781 1.60901 -25.85171 13.39328 -2.45444 42.47328 -106.53377 16.15419 -2.18893 35.12392 -1.10823 -12.25021 -20.27323 -7.79651 -3.03584 -3.76508 37.65841 8.94976 10.44663 -27.30351 -8.61861 3.45334 4.01428
0.00021 0.00075 0.00514 21.29818 -23.04019 -6.9303 44.94749 1.9334 -4.19808 -9.30493 -0.41729 -0.37091 -21.48926 -11.085 0.92942 36.58726 99.52645 8.97841 2.42565 -25.52123 13.65636 -2.45879 42.55971 -102.87198 15.39996 -1.53298 35.15804 -1.1322 -12.61842 -20.25981 -7.77408 -3.00077 -3.74741 37.72053 9.02272 10.5953 -27.35214 -8.61235 3.43491 4.00647
-3e-05 0.00071 0.00576 21.25132 -23.04651 -6.94279 44.89644 1.69655 -4.27268 -9.49872 0.73852 -0.37615 -21.38317 -10.92869 0.89239 36.29475 103.33729 9.6647 3.34864 -25.19341 13.95589 -2.50118 42.68364 -98.76964 14.54857 -0.79832 35.19092 -1.14813 -13.0373 -20.24129 -7.74976 -2.96217 -3.72788 37.79106 9.10572 10.73296 -27.41192 -8.61 3.41739 3.99982
-0.00033 0.00068 0.00619 21.22056 -23.05423 -6.94211 44.84837 1.47696 -4.35232 -9.64808 1.76148 -0.38138 -21.27994 -10.81484 0.91451 36.0196 106.24996 10.16722 4.04357 -24.86074 14.17765 -2.46497 42.72918 -95.59717 13.90233 -0.22972 35.2264 -1.18141 -13.34942 -20.23353 -7.72949 -2.93108 -3.71231 37.84416 9.16642 10.8908 -27.44828 -8.59949 3.39814 3.99084
-0.00076 0.0007 0.00611 21.22794 -23.06649 -6.90252 44.80976 1.29775 -4.44228 -9.67537 2.43525 -0.38662 -21.18039 -10.80958 1.10017 35.77941 106.82525 10.18158 4.13882 -24.50855 14.19125 -2.19768 42.55189 -94.99763 13.82308 -0.1211 35.26925 -1.25957 -13.36426 -20.25549 -7.71979 -2.92039 -3.70749 37.84633 9.17491 11.13096 -27.41899 -8.56552 3.37234 3.97427
-0.00126 0.00074 0.00582 21.25255 -23.08003 -6.85027 44.77386 1.13727 -4.53785 -9.6581 2.97285 -0.39183 -21.08424 -10.84825 1.34454 35.55866 106.48054 10.00939 4.00154 -24.15291 14.12593 -1.85461 42.29772 -95.32807 13.9491 -0.17847 35.31468 -1.35562 -13.27256 -20.2882 -7.71426 -2.91731 -3.70668 37.83156 9.15951 11.38726 -27.36647 -8.5235 3.34508 3.95555
-0.00176 0.00075 0.00559 21.27327 -23.09256 -6.80552 44.73595 0.97266 -4.63325 -9.66125 3.56265 -0.39702 -20.98956 -10.8722 1.56184 35.33772 106.46677 9.91078 3.95191 -23.80254 14.09311 -1.55586 42.08324 -95.21874 13.97854 -0.15699 35.35872 -1.44528 -13.23255 -20.31592 -7.70713 -2.91085 -3.7041 37.82658 9.14896 11.61744 -27.3255 -8.4859 3.31975 3.93863
